<svg width="336" height="338" viewBox="0 0 336 338" fill="none" xmlns="http://www.w3.org/2000/svg">
<path fill-rule="evenodd" clip-rule="evenodd" d="M268.5 3.12402C261.958 9.75402 246.714 18.264 232.491 23.228L226.383 25.36L221.935 22.3C211.57 15.168 209.007 14.5 192 14.5C177.398 14.5 176.179 14.651 170.961 17.098C164.96 19.913 155.259 26.955 150.563 31.904C147.887 34.724 147.067 35 141.35 35C132.884 35 125.743 32.164 115.979 24.925L108 19.008V25.945C108 29.76 108.45 33.16 109 33.5C109.55 33.84 110 34.84 110 35.721C110 38.877 116.208 46.913 123.044 52.608L130 58.401V65.806C130 72.246 130.326 73.599 132.5 76.182C134.55 78.619 135 80.218 135 85.072C135 90.827 134.862 91.131 129.997 96.1C127.245 98.91 123.366 103.845 121.378 107.066C117.775 112.904 116.574 113.704 108.883 115.396C103.649 116.547 95.891 129.942 93.474 142C93.088 143.925 91.676 148.875 90.335 153C86.629 164.404 86.258 171.404 89.018 177.819C90.869 182.124 91.078 183.533 90.163 185.542C88.91 188.291 85.886 188.772 84.016 186.519C82.834 185.095 82.909 183.357 84.568 173.779C85.124 170.565 84.822 169.668 82.35 167.196C80.515 165.361 77.951 164.088 75.205 163.649C70.643 162.919 68.975 160.871 70.698 158.112C71.391 157.003 71.368 155.946 70.627 154.77C69.89 153.601 69.856 152.162 70.521 150.275C71.126 148.56 71.309 134.127 71 112.5L70.5 77.5L55 68.217C46.475 63.112 37.238 57.437 34.474 55.606C26.155 50.096 26.072 50.11 21.25 57.916C18.913 61.7 17 65.045 17 65.35C17 65.655 14.975 68.801 12.5 72.341C10.025 75.882 8.00001 79.035 8.00001 79.349C8.00001 79.663 6.20401 82.75 4.01001 86.21C1.81501 89.669 0.0340071 93.4 0.0530071 94.5C0.0710071 95.6 1.65501 102.125 3.57301 109C5.49001 115.875 7.65701 123.975 8.38901 127C9.12001 130.025 11.181 137.9 12.968 144.5C14.755 151.1 17.323 161.45 18.675 167.5C20.027 173.55 21.377 179.492 21.675 180.705C22.08 182.358 20.937 184.38 17.108 188.782C10.698 196.152 10.419 198.977 15.765 202.351C21.156 205.755 21.665 206.704 22.286 214.511C23.223 226.293 31.663 241.455 39.056 244.639C40.511 245.265 41.979 246.503 42.319 247.389C42.831 248.723 44.67 249 53.009 249C61.889 249 63.44 249.266 66.113 251.25C68.678 253.153 71.175 253.654 82.323 254.5L95.5 255.5L99.137 266C109.729 296.584 112.343 306.175 111.822 312.539C111.535 316.044 110.842 316.96 105.438 320.985C96.881 327.359 92.332 332.716 93.67 334.844C94.54 336.228 97.239 336.587 110.105 337.028C126.875 337.604 129.558 337.049 133.463 332.198C137.558 327.109 137.929 325.63 137.965 314.218C138.001 302.674 139.161 297.689 142.731 293.745C144.154 292.172 145.37 292.006 151.443 292.556C155.324 292.908 161.425 294.074 165 295.148C169.882 296.615 174.569 297.11 183.829 297.138C190.61 297.158 196.318 297.016 196.512 296.821C196.707 296.626 197.188 290.267 197.581 282.688L198.296 268.909L201.148 271.642C202.717 273.145 204 274.75 204 275.209C204 276.652 212.442 293.451 213.694 294.5C214.351 295.05 216.038 298.591 217.444 302.369C219.693 308.413 220 310.771 220 322.004C220 334.738 220.007 334.774 222.673 336.522C224.985 338.036 227.049 338.202 237.923 337.747C254.076 337.071 258.571 335.481 259.311 330.182C259.794 326.721 259.44 326.126 253.412 320.259L247 314.017V303.154V292.291L259.25 291.708C266.933 291.343 274.161 290.367 278.637 289.091C285.613 287.102 301.015 278.686 304 275.233C304.825 274.279 307.399 272.009 309.719 270.189C312.378 268.104 316.499 262.742 320.861 255.69C327.86 244.377 329.429 240.765 332.45 229C333.369 225.425 334.543 220.873 335.06 218.884C336.326 214.015 336.248 202.495 334.906 195.886C334.304 192.924 333.606 188.925 333.355 187C333.104 185.075 332.471 183.073 331.949 182.55C331.427 182.028 331 180.589 331 179.354C331 178.118 329.146 173.596 326.88 169.304C324.613 165.012 322.063 160.177 321.212 158.56C320.361 156.944 317.273 153.23 314.35 150.307C308.996 144.953 308.496 143.909 307.672 136.358C306.823 128.591 299.432 120.802 289.319 117.018C286.293 115.886 282.969 114.83 281.934 114.672C280.899 114.514 279.74 114.073 279.359 113.692C278.978 113.312 275.345 113 271.286 113C264.519 113 263.692 112.771 261.352 110.25C259.947 108.737 258.118 106.15 257.285 104.5C256.453 102.85 254.64 100.29 253.258 98.811C251.261 96.676 250.892 95.544 251.467 93.311C253.249 86.39 253.116 81.52 251.036 77.506C249.837 75.191 249.394 73.369 249.983 73.172C250.599 72.967 251 67.952 251 60.447V48.061L255.865 42.78C258.541 39.876 261.902 36.211 263.335 34.637C264.768 33.062 267.863 27.887 270.215 23.137C274.011 15.467 274.49 13.719 274.495 7.52202C274.501 -0.683984 273.2 -1.63798 268.5 3.12402ZM271.502 7.75002C271.11 8.71302 269.744 12.523 268.466 16.217C265.341 25.247 257.43 36.727 250.664 42.049C248.218 43.973 247.715 44.046 245.721 42.758C242.753 40.843 229.553 36.394 224.25 35.523C221.688 35.102 220 34.287 220 33.471C220 31.598 220.902 31.169 230.273 28.585C234.798 27.337 241.422 24.863 244.994 23.088C252.239 19.486 266.994 9.91702 268.967 7.54002C270.702 5.44902 272.382 5.58802 271.502 7.75002ZM200.426 18.982C206.975 20.054 209.071 21.329 207.261 23.139C205.439 24.961 181.5 22.982 181.5 21.01C181.5 18.327 190.523 17.36 200.426 18.982ZM120.796 32.598C127.892 36.684 134.715 39 139.659 39C144.181 39 143.861 40.308 138.78 42.598C133.607 44.93 129 48.694 129 50.589C129 53.109 127.272 52.104 121.544 46.25C116.365 40.957 112.222 34.16 110.446 28.039C109.742 25.615 109.767 25.603 112.116 27.275C113.427 28.209 117.333 30.604 120.796 32.598ZM53 71.974L66.5 80.591L66.766 106.627L67.033 132.664L64.469 133.832C63.059 134.474 61.236 135 60.418 135C59.599 135 57.933 135.648 56.715 136.441C55.497 137.234 50.805 139.241 46.288 140.902L38.076 143.922L37.573 140.711C33.022 111.647 28.932 85.157 28.201 80L27.278 73.5L27.139 81.15C27.028 87.263 31.883 120.195 36.31 143.354C36.559 144.655 19.743 151.058 18.697 150.06C18.256 149.639 14.541 136.827 10.443 121.588C4.23301 98.496 3.18401 93.518 4.14601 91.691C4.78001 90.486 9.99301 81.944 15.731 72.71L26.163 55.919L32.832 59.638C36.499 61.683 45.575 67.234 53 71.974ZM222.205 64.631C224.481 65.123 225.01 65.884 225.542 69.429C226.921 78.625 222.08 86.598 213.694 88.946C206.848 90.863 205.634 90.264 204.819 84.57C204.361 81.362 203.268 78.814 201.664 77.21L199.211 74.756L199.742 81.378C200.223 87.363 200.092 88.011 198.387 88.111C192.05 88.482 187.41 86.608 184.03 82.312C182.222 80.012 181.618 79.776 180.192 80.812C176.439 83.536 171.393 85.165 164.211 85.971C153.421 87.181 151 85.876 151 78.852C151 75.145 152.363 72.427 156.316 68.25C158.831 65.593 160.154 65 163.571 65C171.222 65 174.102 66.058 176.22 69.648C178.647 73.761 180 73.15 180 67.941C180 64.688 180.343 64 181.969 64C183.162 64 183.743 64.506 183.444 65.286C183.101 66.178 185.173 67.093 190.215 68.276C194.211 69.214 201.262 71.796 205.884 74.013C210.506 76.231 214.56 77.766 214.894 77.423C215.227 77.081 213.496 75.016 211.047 72.835C207.486 69.662 206.885 68.685 208.047 67.95C208.846 67.444 209.864 67.024 210.309 67.015C210.754 67.007 210.84 66.55 210.5 66C210.16 65.45 208.446 64.993 206.691 64.985C204.936 64.976 202.825 64.49 202 63.903C200.456 62.806 216.429 63.381 222.205 64.631ZM35.454 68.926C35.84 69.549 39.157 72.039 42.827 74.459C46.497 76.879 50.807 80.225 52.404 81.895C55.278 84.899 55.317 85.104 56.155 101.216C57.35 124.199 57.708 124.338 57.864 101.88L58 82.26L48.75 76.488C43.663 73.313 38.432 70.058 37.127 69.254C35.822 68.45 35.069 68.303 35.454 68.926ZM141.333 74.575C140.895 75.717 141.247 76.061 142.614 75.825C144.22 75.548 144.547 76.237 144.814 80.467C145.055 84.296 144.725 85.728 143.373 86.717C139.782 89.342 139 88.349 139 81.167C139 77.408 139.3 74.033 139.667 73.667C140.907 72.426 141.941 72.99 141.333 74.575ZM245.551 77.468C247.208 81.435 247.449 88.69 246.045 92.383C244.564 96.276 240.484 98.541 237.444 97.157C234.415 95.777 232.174 91.426 233.704 89.896C234.438 89.162 235.897 89.848 238.542 92.171L242.33 95.497L241.734 91.055C241.333 88.062 240.382 86.031 238.819 84.829C237.544 83.847 236.867 83.034 237.316 83.022C238.731 82.984 242.453 85.262 243.668 86.912C245.549 89.463 246.287 87.455 244.64 84.27C242.572 80.271 240.584 78.815 236.757 78.493C234.966 78.342 233.338 78.17 233.139 78.11C232.941 78.049 233.841 77.115 235.139 76.033C236.438 74.952 238.985 74.052 240.801 74.033C243.636 74.005 244.307 74.49 245.551 77.468ZM11.542 87.063L7.80001 93.126L10.647 104.483C12.212 110.729 13.64 115.693 13.819 115.514C13.998 115.335 13.338 110.422 12.353 104.596C10.479 93.523 10.448 93.821 14.395 84.75C15.293 82.688 15.86 81 15.656 81C15.451 81 13.6 83.728 11.542 87.063ZM188 114.06C193.399 115.424 202.461 121.221 202.767 123.506C203.195 126.697 199.376 131.827 194.379 134.775C191.838 136.274 189.17 138.063 188.451 138.75C187.731 139.438 185.712 140 183.963 140C181.439 140 179.688 138.887 175.47 134.601C167.785 126.792 161.881 124.737 146.74 124.604C136.297 124.512 134.916 124.296 134.4 122.678C133.736 120.595 136.256 117.371 139.304 116.403C140.426 116.047 148.129 114.952 156.422 113.969C171.101 112.229 180.867 112.257 188 114.06ZM67 142.976C67 144.406 65.79 145.098 61.75 145.977C54.82 147.486 47 148.417 47 147.732C47 147.432 49.542 146.387 52.649 145.409C55.756 144.432 59.872 142.83 61.797 141.849C65.657 139.881 67 140.172 67 142.976ZM44.693 156.641C43.952 157.381 22.683 166.017 22.371 165.704C22.256 165.59 21.857 164.279 21.484 162.791C20.713 159.718 20.075 159.979 34 157.68C44.573 155.934 45.488 155.845 44.693 156.641ZM77.901 183.601C80.633 187.074 81.459 192.078 80.022 196.435C79.374 198.396 78.767 200 78.672 199.999C78.578 199.999 76.082 199.08 73.126 197.957C67.95 195.989 67.677 195.98 65.707 197.707C63.725 199.443 63.684 199.437 64.394 197.502C64.797 196.403 65.602 193.292 66.182 190.589C67.325 185.257 70.744 181 73.882 181C74.967 181 76.776 182.171 77.901 183.601ZM61.652 188.535C61.976 189.379 61.667 192.116 60.967 194.618C60.017 198.01 59.034 199.404 57.097 200.104C52.962 201.597 50.539 202.984 47.416 205.646L44.5 208.131L48.5 207.562C50.7 207.249 53.85 206.738 55.5 206.426C57.971 205.959 58.676 206.268 59.5 208.18C60.05 209.456 61.969 211.175 63.764 212C67.283 213.617 69.156 217.667 67.001 218.999C66.303 219.431 64.333 219.382 62.623 218.892C57.451 217.409 55.234 217.855 51.501 221.133C49.539 222.856 48.16 224.493 48.438 224.771C48.715 225.049 50.906 224.726 53.305 224.055C56.584 223.137 58.687 223.108 61.773 223.939C66.422 225.191 67.549 227.258 66.534 232.671C66.013 235.446 65.53 236.024 64.189 235.473C58.193 233.009 46.226 234.744 41.776 238.722C40.221 240.111 39.813 240.108 37.639 238.683C32.694 235.443 27.444 223.421 26.323 212.77L25.719 207.041L30.515 202.637C36.231 197.389 43.755 192.699 51.698 189.433C58.494 186.639 60.843 186.427 61.652 188.535ZM84.238 209.341C83.669 224.24 85.103 233.341 89.517 242.849C90.883 245.791 92 248.669 92 249.243C92 249.936 88.496 250.108 81.587 249.756C73.617 249.349 70.574 248.787 68.618 247.362C65.392 245.011 65.389 243.98 68.599 239.294C70.941 235.876 71.154 234.796 70.758 228.392C70.461 223.593 70.732 220.72 71.591 219.545C72.29 218.588 72.629 217.197 72.344 216.453C72.017 215.602 73.114 214.561 75.304 213.646C78.157 212.454 79.159 211.19 80.863 206.637C82.006 203.581 83.228 199.938 83.579 198.541C83.93 197.143 84.336 196 84.482 196C84.627 196 84.518 202.003 84.238 209.341ZM272.395 196.96C275.596 198.177 279 201.548 279 203.5C279 205.674 277.655 205.372 272.339 202C268.971 199.864 266.369 199 263.304 199C259.016 199 257.423 197.559 260.75 196.689C263.956 195.852 269.839 195.988 272.395 196.96ZM103.925 210.282C107.367 213.462 112.756 217.362 115.901 218.95C119.046 220.538 122.261 222.61 123.045 223.554C124.858 225.739 131.013 229.643 133.554 230.22C134.624 230.463 132.89 231.018 129.7 231.452C121.719 232.54 101.119 231.603 97.765 230C92.938 227.693 90.498 220.964 90.512 210C90.519 204.775 90.864 199.656 91.279 198.624C91.944 196.97 92.369 197.208 94.851 200.624C96.4 202.756 100.484 207.102 103.925 210.282ZM74.767 202.602C77.177 204.161 76.784 206.274 73.593 208.923C70.593 211.413 63 207.237 63 203.097C63 202.528 63.617 202.3 64.371 202.589C65.125 202.878 66.029 202.366 66.38 201.451C67.105 199.562 70.865 200.078 74.767 202.602ZM272.777 205.557C274 206.413 275 207.988 275 209.057C275 211.347 274.356 211.419 271 209.5C269.625 208.714 267.514 208.055 266.309 208.035C263.598 207.992 262.264 206.08 264.122 204.904C266.274 203.541 270.337 203.847 272.777 205.557ZM181.119 260.879C183.872 263.643 188.274 291.284 186.244 293.065C185.29 293.902 169.315 292.431 164.09 291.024C159.67 289.834 157.821 287.693 152.739 277.876C147.854 268.438 144.287 268.753 141.35 278.881C139.198 286.303 136.907 291 135.44 291C134.785 291 132.902 291.27 131.255 291.599L128.259 292.198L127.764 280.849C127.492 274.607 126.961 268.781 126.585 267.901C126 266.532 127.162 266.206 134.676 265.628C139.501 265.257 147.456 264.013 152.353 262.863C166.367 259.573 178.953 258.705 181.119 260.879ZM240.977 307.044C240.332 308.248 239.24 308.922 238.435 308.614C237.659 308.316 237.131 308.562 237.262 309.161C237.393 309.76 236.875 310.477 236.111 310.755C235.26 311.064 234.992 310.822 235.42 310.13C235.804 309.508 235.627 309 235.028 309C234.428 309 233.678 309.675 233.362 310.5C232.374 313.075 229.074 312.169 226.985 308.75C225.237 305.888 225.181 305.366 226.511 304.382C227.857 303.385 227.855 303.124 226.487 301.989C225.643 301.288 224.663 301.004 224.309 301.357C223.956 301.711 224.218 302 224.892 302C225.566 302 225.798 302.518 225.406 303.151C224.533 304.565 221.96 301.402 222.079 299.059C222.122 298.201 222.355 297.972 222.596 298.55C223.05 299.639 239.606 297.737 240.874 296.45C242.028 295.278 242.121 304.905 240.977 307.044ZM133.329 301.358C132.464 306.69 127.41 310.487 122.424 309.552C119.93 309.084 118.996 308.454 119.365 307.49C119.714 306.582 119.396 306.294 118.449 306.658C117.506 307.02 116.995 306.565 116.986 305.357C116.979 304.336 116.72 302.559 116.411 301.409C115.885 299.449 116.405 299.26 124.675 298.398C129.529 297.892 133.599 297.506 133.719 297.541C133.84 297.576 133.664 299.294 133.329 301.358ZM238.143 298.89C237.319 299.413 237.176 299.991 237.78 300.364C238.326 300.702 239.329 300.308 240.009 299.489C241.359 297.863 240.3 297.524 238.143 298.89ZM129 300.059C129 300.641 129.45 300.84 130 300.5C130.55 300.16 131 299.684 131 299.441C131 299.198 130.55 299 130 299C129.45 299 129 299.477 129 300.059ZM119.25 300.689C120.213 300.941 121.787 300.941 122.75 300.689C123.713 300.438 122.925 300.232 121 300.232C119.075 300.232 118.287 300.438 119.25 300.689ZM125.813 302.683C126.534 302.972 127.397 302.936 127.729 302.604C128.061 302.272 127.471 302.036 126.417 302.079C125.252 302.127 125.015 302.364 125.813 302.683ZM130.459 303.067C130.096 303.653 130.014 304.348 130.276 304.61C130.538 304.872 131.019 304.392 131.345 303.543C132.021 301.781 131.445 301.471 130.459 303.067ZM232.5 307C231.769 308.183 232.748 308.183 235.5 307C237.428 306.171 237.421 306.138 235.309 306.07C234.104 306.032 232.84 306.45 232.5 307ZM119.925 321.25C120.985 322.25 121.342 322.25 121.708 321.25C122.339 319.53 126.936 319.671 127.612 321.43C128.357 323.372 125.179 329.834 122.872 331.068C121.845 331.618 116.33 331.94 110.616 331.784L100.226 331.5L102.863 329.547C104.546 328.3 105.138 328.136 104.5 329.094C103.95 329.919 104.463 329.503 105.639 328.17C106.973 326.658 108.255 326.039 109.044 326.527C109.82 327.007 110.059 326.905 109.663 326.264C109.07 325.304 112.379 322.461 116 320.82C118.172 319.836 118.46 319.868 119.925 321.25ZM243 324.059C243 324.641 243.445 324.843 243.988 324.507C245.121 323.807 253.416 327.246 254.387 328.818C255.129 330.017 253.407 331.309 250.5 331.735C249.4 331.896 246.055 332.471 243.066 333.014C240.078 333.556 235.846 334 233.661 334C229.77 334 229.726 333.96 231.477 332.026C232.46 330.94 234.104 329.784 235.132 329.458C236.159 329.132 237 328.371 237 327.766C237 327.161 236.704 326.963 236.342 327.325C235.98 327.687 235.1 327.498 234.386 326.905C233.672 326.313 232.51 326.185 231.804 326.621C230.897 327.182 231.25 327.618 233.01 328.108C235.405 328.774 235.386 328.805 232.5 328.916C230.178 329.005 229.839 329.25 231 330C232.282 330.828 232.246 330.972 230.75 330.985C229.787 330.993 229 330.411 229 329.691C229 327.043 231.614 324.954 236 324.098C242.314 322.865 243 322.861 243 324.059ZM240 325C240 325.55 240.477 326 241.059 326C241.641 326 241.84 325.55 241.5 325C241.16 324.45 240.684 324 240.441 324C240.198 324 240 324.45 240 325ZM244.029 325.961C243.22 326.473 242.818 327.152 243.136 327.47C243.455 327.788 244.284 327.362 244.98 326.524C246.423 324.786 246.146 324.622 244.029 325.961ZM248.25 327.631C249.213 327.914 250 328.59 250 329.132C250 329.674 249.581 329.859 249.069 329.543C248.557 329.226 247.829 329.468 247.451 330.08C247.018 330.78 247.456 331.059 248.632 330.832C251.13 330.351 251.027 327.582 248.5 327.321C246.946 327.161 246.89 327.23 248.25 327.631ZM242 328.958L238.5 329.653L241.401 330.859C242.997 331.523 244.797 331.861 245.401 331.612C246.006 331.362 245.626 331.122 244.559 331.079C242.637 331.001 242.637 330.985 244.559 329.532C245.626 328.724 246.275 328.109 246 328.163C245.725 328.218 243.925 328.576 242 328.958ZM234 332C234 332.55 234.45 333 235 333C235.55 333 236 332.55 236 332C236 331.45 235.55 331 235 331C234.45 331 234 331.45 234 332Z" fill="#7A1010"/>
</svg>
