<svg width="195" height="184" viewBox="0 0 195 184" fill="none" xmlns="http://www.w3.org/2000/svg">
<path fill-rule="evenodd" clip-rule="evenodd" d="M127.609 2.41504C123.714 4.05204 119.856 6.78304 116.224 10.474L110.73 16.056L111.411 25.331C112.012 33.524 111.882 34.792 110.296 36.189C107.5 38.653 98.892 42.656 94.785 43.402C92.064 43.897 90.136 45.218 87.576 48.342C85.653 50.688 83.691 53.662 83.214 54.95C82.622 56.552 81.422 57.387 79.424 57.589C75.955 57.939 69.383 64.897 68.171 69.5C67.653 71.468 66.651 72.607 65.259 72.811C62.739 73.179 61.514 71.201 60.51 65.144C59.633 59.848 57.006 57 53 57C50.678 57 50 56.553 50 55.023C50 52.162 46.239 50.167 40.5 49.983C33.182 49.748 33.319 49.702 29.864 53.5C28.052 55.491 25.722 57 24.461 57C21.35 57 19.57 61.723 20.314 68.006C20.638 70.737 20.475 73.207 19.95 73.531C18.666 74.325 18.745 80.654 20.069 83.13C20.844 84.576 20.818 85.514 19.976 86.529C19.337 87.299 18.968 89.858 19.157 92.215C19.478 96.22 19.19 96.786 14.75 100.877C10.332 104.949 10 105.595 10 110.127C10 114.095 10.325 115.003 11.75 115.015C15.826 115.051 15.925 115.691 14.975 136.023C13.573 166.05 12.94 173 11.605 173C10.955 173 8.658 173.9 6.5 175C4.342 176.1 1.997 177 1.289 177C0.58 177 0 177.45 0 178C0 178.55 1.145 179 2.544 179C4.412 179 5.01 179.465 4.794 180.75C4.537 182.278 5.759 182.597 14.432 183.262C20.006 183.69 26.587 183.617 29.432 183.095C32.501 182.532 34.631 182.527 34.833 183.083C35.279 184.309 44.167 184.137 57 182.654C62.996 181.961 66.957 181.102 66.234 180.651C64.176 179.369 65.862 178 69.5 178C71.36 178 73.16 177.55 73.5 177C73.84 176.45 73.616 176 73.003 176C72.39 176 68.764 174.544 64.944 172.765L58 169.529L57.993 150.015C57.989 139.282 57.699 127.463 57.348 123.75L56.711 117H60.355C63.849 117 64 116.856 64 113.525C64 110.171 64.093 110.085 66.674 111.066C70.037 112.345 74.28 111.453 76.5 109C77.439 107.962 79.561 106.816 81.216 106.453C82.871 106.089 85.936 104.245 88.028 102.355C92.196 98.59 92.296 98.629 93.915 104.667C95.345 110 93.895 113.485 89.612 115.005C86.625 116.064 86.578 116.167 88.441 117.554C89.509 118.349 90.878 119 91.484 119C93.859 119 95 128.247 95 147.504C95 164.556 94.751 167.633 93.001 172.239C89.18 182.29 90.626 184 102.943 184C111.888 184 112.415 183.334 111.515 173.167C110.746 164.482 111.64 161.855 119.595 149.419C123.66 143.064 126.174 141.794 133.865 142.206L139.366 142.5L141.933 147.5C144.281 152.073 144.5 153.555 144.5 164.857V177.215L148 180.142C151.315 182.914 151.923 183.054 159.5 182.785L167.5 182.5L167.806 178.815C168.056 175.813 167.686 174.906 165.806 173.916C164.538 173.247 163.169 172.205 162.765 171.6C161.72 170.034 161.826 159.531 162.915 156.797C163.419 155.534 165.044 149.1 166.527 142.5C168.011 135.9 169.918 129.713 170.767 128.75C171.742 127.644 173.751 127 176.228 127H180.145L177.997 124.27L175.85 121.539L179.838 118.02C182.032 116.084 186.34 110.625 189.413 105.89C194.851 97.509 195 97.091 195 90.24C195 82.714 195.488 83.795 185.662 69.573C184.17 67.413 182.659 64.49 182.304 63.076C181.72 60.747 177.665 56.505 168.081 48.194C164.813 45.361 164.719 45.092 165.955 42.109C166.666 40.392 166.975 37.626 166.642 35.962C166.125 33.373 166.404 32.797 168.579 31.97C170.771 31.137 171.078 30.487 170.81 27.252C170.545 24.04 170.121 23.456 167.869 23.195C165.673 22.94 165.137 22.261 164.629 19.082C163.904 14.545 159.928 10.096 151.621 4.52304C143.862 -0.681957 136.514 -1.32696 127.609 2.41504ZM147.5 4.92304C153.795 8.94204 161.024 16.469 161.613 19.617C162.131 22.384 161.891 22.811 159.474 23.417C156.919 24.058 156.788 24.359 157.344 28.3C157.67 30.61 158.21 33.639 158.543 35.031C159.047 37.136 158.675 37.755 156.325 38.714C153.545 39.848 153.564 39.863 157.5 39.683C161.312 39.509 161.5 39.347 161.49 36.247C161.485 34.457 161.935 33.142 162.49 33.324C164.188 33.879 164.233 39.995 162.559 42.55C161.294 44.48 161.176 45.807 161.966 49.23C162.508 51.578 162.962 55.375 162.976 57.666C162.997 61.304 162.525 62.204 159.25 64.771C153.041 69.638 150.999 70.306 142.025 70.405C132.123 70.515 128.82 69.011 122.029 61.296C118.463 57.244 117.997 56.132 117.97 51.609C117.928 44.618 116.069 47.828 115.741 55.457C115.51 60.83 115.665 61.214 119.5 64.796C129.637 74.261 129.032 74 140.835 74C150.414 74 152.031 73.73 156.508 71.385C162.678 68.152 167 64.209 167 61.813C167 59.45 167.126 59.477 172.354 63.006C177.726 66.631 179 69.794 179 79.5C179 87.239 177.672 92.528 175.523 93.353C174.788 93.635 171.497 93.239 168.212 92.472C161.613 90.933 155.355 90.312 154.55 91.117C153.999 91.668 165.548 96.387 170.31 97.557C171.932 97.955 172.922 98.762 172.651 99.467C172.394 100.138 171.862 103.345 171.47 106.593C170.47 114.868 170.348 114.99 164.75 113.34C160.438 112.069 160 111.66 160 108.914C160 106.277 159.405 105.624 155.379 103.843C151.664 102.2 149.193 101.87 142.782 102.161C135.768 102.48 134.547 102.824 132.653 105.012C130.547 107.446 130.148 107.506 114.368 107.784L98.235 108.069L97.532 104.319C97.145 102.257 96.152 99.26 95.324 97.66C94.131 95.353 94.036 93.899 94.866 90.631C96.26 85.139 94.637 83.758 92.534 88.646C88.334 98.406 86.757 100.768 83.055 102.849C80.95 104.032 78.557 105 77.736 105C76.916 105 75.709 105.646 75.053 106.436C74.398 107.225 72.548 108.16 70.941 108.513C68.394 109.072 67.412 108.537 63.26 104.327C60.642 101.672 56.79 98.6 54.701 97.5C51.66 95.899 51.034 95.101 51.564 93.5C52.856 89.602 53.218 84 52.178 84C51.611 84 50.941 84.787 50.689 85.75C50.383 86.921 50.201 86.673 50.14 85C50.064 82.964 50.924 82.088 54.774 80.28C57.373 79.058 60.291 77.483 61.259 76.78C65.353 73.801 71.891 81.462 74.046 91.763C74.652 94.658 75.513 96.801 75.96 96.525C77.388 95.642 78.079 89.339 77.047 86.623C76.179 84.341 76.306 84 78.025 84C79.111 84 80 83.55 80 83C80 82.45 79.551 82 79.003 82C77.319 82 70 74.864 70 73.221C70 70.25 74.924 63.274 77.888 62.046C81.753 60.446 84.664 61.45 86.511 65.021C88.666 69.189 88.371 71.681 85.018 77.621C83.378 80.527 82.44 83.154 82.934 83.459C84.438 84.389 89.798 79.142 90.97 75.592C91.83 72.985 92.624 72.25 94.578 72.25C98.525 72.25 98.448 71.448 94.083 67.083C91.838 64.838 90 62.132 90 61.071C90 60.011 89.298 58.441 88.44 57.583C87.11 56.253 87.073 55.628 88.19 53.351C91.208 47.197 100.594 44.187 106.785 47.389C112.68 50.437 113.58 48.539 107.882 45.075L104.983 43.311L109.133 41.44C114.829 38.872 116.518 34.813 114.978 27.396C114.145 23.381 114.145 21.091 114.978 18.568C116.342 14.433 123.593 7.54204 129.31 4.94604C134.918 2.40004 143.532 2.38904 147.5 4.92304ZM133.506 19.988C131.432 23.999 132.226 27.806 135.265 28.423C136.494 28.673 140.543 29.142 144.262 29.467C152.469 30.184 155.257 29.052 154.81 25.183C154.55 22.93 153.539 22.119 148.5 20.123C145.2 18.816 140.852 17.524 138.838 17.253C135.512 16.806 135.022 17.057 133.506 19.988ZM118.571 19.571C116.97 21.173 116.353 30.15 117.618 33.446C118.597 35.999 121.689 37.237 124 36C126.799 34.502 126.49 33.189 123.25 32.816C120.685 32.521 120.48 32.147 120.198 27.25C119.928 22.564 120.111 22 121.898 22C122.999 22 124.359 22.788 124.92 23.75C125.846 25.34 125.942 25.308 125.97 23.405C126.001 21.236 123.171 18 121.243 18C120.638 18 119.436 18.707 118.571 19.571ZM121 26.383C121 28.926 121.497 29.897 123 30.29C125.253 30.879 125.541 29.552 124.025 25.565C122.646 21.938 121 22.383 121 26.383ZM147.04 33.452C145.55 35.247 146.022 38.175 147.902 38.801C148.911 39.137 149.147 38.671 148.746 37.135C148.439 35.962 148.596 34.75 149.094 34.442C150.253 33.725 150.273 32 149.122 32C148.64 32 147.703 32.653 147.04 33.452ZM138.25 43.031C134.688 44.463 135.625 45.314 140.102 44.713C142.359 44.41 146.656 44.801 149.651 45.581C156.081 47.256 156 47.249 156 46.109C156 44.656 148.258 41.995 144.23 42.063C142.178 42.098 139.488 42.534 138.25 43.031ZM142 47.525C142 49.442 145.989 51 150.898 51C156.986 51 156.537 49.717 149.789 47.83C142.027 45.658 142 45.657 142 47.525ZM177.811 61.019C178.912 62.824 178.901 63.034 177.744 62.334C172.914 59.411 167 54.456 167 53.332C167 51.649 175.997 58.047 177.811 61.019ZM43.285 55.5C43.166 56.05 41.401 56.847 39.363 57.27C37.324 57.694 35.059 58.536 34.328 59.142C33.285 60.008 33 59.718 33 57.789C33 56.438 33.321 55.013 33.713 54.621C34.787 53.546 43.532 54.349 43.285 55.5ZM149.861 57.967L147.5 59.933L150.125 59.967C151.569 59.985 154.163 59.717 155.891 59.372C158.411 58.868 158.807 58.472 157.894 57.372C156.264 55.408 152.606 55.679 149.861 57.967ZM27.346 60.459C27.654 61.262 30.29 63.121 33.203 64.59C36.116 66.06 38.831 67.766 39.235 68.381C40.243 69.917 40.194 76 39.173 76C38.718 76 38.539 74.69 38.774 73.089C39.111 70.788 38.649 69.816 36.569 68.453C33.361 66.351 32.026 67.267 34.43 69.922C36.943 72.699 35.651 76.358 32.378 75.732C27.973 74.89 29.021 76.594 34.587 79.324C40.515 82.231 41.556 83.649 40.589 87.502C39.683 91.11 38.262 90.578 38.811 86.837C39.146 84.551 38.768 83.304 37.446 82.337C34.856 80.443 33.783 80.68 35.138 82.849C36.536 85.088 35.437 90.377 33.708 89.728C33.044 89.479 31.375 88.928 30 88.504C27.511 87.738 27.508 87.743 29.405 89.867C30.453 91.04 30.925 92 30.455 92C29.985 92 30.14 92.54 30.8 93.2C32.913 95.313 32.108 96 27.519 96C23.564 96 22.964 95.704 22.406 93.481C22.058 92.095 22.279 89.732 22.896 88.231C23.603 86.511 23.704 84.389 23.169 82.5C22.702 80.85 22.694 78.15 23.151 76.5C23.608 74.85 23.706 71.386 23.369 68.803C23.032 66.22 23.045 62.958 23.397 61.553C24.095 58.774 26.449 58.122 27.346 60.459ZM56.578 62.75C56.917 64.263 57.598 67.075 58.091 69C59.326 73.814 59.434 73.547 55.25 76.012C51.916 77.976 51.694 78.006 53.25 76.282C55.513 73.774 55.462 72.318 53.066 71.035C50.314 69.563 49.551 69.753 51.035 71.542C52.624 73.457 51.06 75.362 48.356 74.805C45.826 74.283 46.231 69.227 48.955 67.319C50.227 66.428 51 64.774 51 62.943C51 60.476 51.402 60 53.481 60C55.371 60 56.109 60.655 56.578 62.75ZM187.866 78.783C188.46 80.277 189.434 82.835 190.031 84.466C190.827 86.644 191.336 87.074 191.948 86.084C193.287 83.917 194.127 87.97 193.07 91.5C192.576 93.15 192.133 93.911 192.086 93.191C191.921 90.678 190.046 93.117 188.933 97.292C187.362 103.185 181.494 112.521 177.395 115.648C175.498 117.095 173.758 118.091 173.529 117.862C172.437 116.77 175.488 108 179.002 102.133C183.272 95.002 183.418 93.32 179.441 97.056C177.584 98.8 177.069 98.983 177.551 97.726C177.916 96.777 178.532 96 178.922 96C180.579 96 183.084 88.304 183.666 81.426C184.327 73.602 185.509 72.859 187.866 78.783ZM99.622 77.75C99.986 79.263 101.828 82.632 103.717 85.237C110.914 95.164 116.035 97.027 129.5 94.617C134.45 93.731 140.637 92.752 143.25 92.442C145.863 92.131 148 91.506 148 91.052C148 89.582 139.67 88.991 133 89.988C121.494 91.708 117.847 91.334 112.669 87.904C110.098 86.201 106.308 82.62 104.247 79.947C99.98 74.411 98.671 73.789 99.622 77.75ZM48 101.962C51.981 103.176 48.808 103.784 34.72 104.504C27.691 104.863 20.521 105.564 18.786 106.061C12.423 107.886 14.461 105.08 21.5 102.326C24.822 101.026 44.066 100.762 48 101.962ZM155.514 106.601C158.912 108.828 158.641 109.5 154.344 109.5C149.507 109.5 149.096 111.31 153.283 114.174C156.559 116.415 157.228 119 154.532 119C153.816 119 152.493 120.125 151.592 121.5C150.269 123.52 149.142 123.997 145.727 123.985C140.549 123.966 139.509 123.321 138.585 119.552C138.019 117.242 137.657 116.918 136.912 118.052C136.11 119.275 135.732 119.198 134.481 117.559C132.673 115.189 132.552 109.994 134.251 107.671C134.939 106.73 136.852 105.531 138.501 105.007C142.62 103.697 152.495 104.623 155.514 106.601ZM137.082 108.401C136.396 109.228 136.001 110.713 136.204 111.702C136.501 113.142 137.443 113.459 140.942 113.295C146.153 113.051 147.937 111.714 146.376 109.222C144.957 106.956 138.737 106.407 137.082 108.401ZM114 115C114 115.55 113.352 116 112.559 116C111.766 116 110.84 115.55 110.5 115C110.16 114.45 110.809 114 111.941 114C113.073 114 114 114.45 114 115ZM125 115C125 116.253 123.939 116.253 122 115C120.787 114.216 120.931 114.028 122.75 114.015C123.987 114.007 125 114.45 125 115ZM102.527 115.956C102.202 116.482 101.275 116.659 100.468 116.349C98.401 115.556 98.644 115 101.059 115C102.191 115 102.852 115.43 102.527 115.956ZM144.667 115.667C143.172 117.161 144.191 118 147.5 118C149.944 118 151 117.548 151 116.5C151 114.971 146.018 114.315 144.667 115.667ZM93.5 117C93.16 117.55 92.459 118 91.941 118C91.423 118 91 117.55 91 117C91 116.45 91.702 116 92.559 116C93.416 116 93.84 116.45 93.5 117ZM34.789 148.21L34.5 177.419L31.025 178.13C28.045 178.738 26.886 178.352 22.891 175.42C20.328 173.539 17.73 172 17.116 172C16.502 172 16 170.583 16 168.852C16 162.548 18.142 121.465 18.534 120.25C18.813 119.387 21.433 119 27.007 119H35.077L34.789 148.21ZM53.596 120.475C54.304 120.697 54.933 127.152 55.368 138.66C55.739 148.472 56.312 159.677 56.642 163.56L57.241 170.62L48.668 173.935C43.952 175.758 39.419 176.991 38.594 176.675C37.294 176.176 37.165 172.471 37.627 148.8C37.92 133.785 38.301 121.026 38.473 120.446C38.756 119.496 50.551 119.519 53.596 120.475ZM166.882 119.906C167.962 120.59 167.782 120.934 166.057 121.482C163.577 122.269 162.47 121.666 163.459 120.067C164.252 118.783 165.049 118.745 166.882 119.906ZM175.5 124C175.84 124.55 175.416 125 174.559 125C173.702 125 173 124.55 173 124C173 123.45 173.423 123 173.941 123C174.459 123 175.16 123.45 175.5 124ZM51.272 132C51.272 134.475 51.467 135.488 51.706 134.25C51.944 133.012 51.944 130.988 51.706 129.75C51.467 128.512 51.272 129.525 51.272 132ZM21.195 138.5C21.215 140.15 21.439 140.704 21.693 139.731C21.947 138.758 21.93 137.408 21.656 136.731C21.382 136.054 21.175 136.85 21.195 138.5ZM52.389 155.5C52.39 162.65 52.55 165.444 52.742 161.708C52.935 157.973 52.934 152.123 52.739 148.708C52.545 145.294 52.387 148.35 52.389 155.5ZM20.336 160C20.336 164.125 20.513 165.813 20.728 163.75C20.944 161.688 20.944 158.313 20.728 156.25C20.513 154.188 20.336 155.875 20.336 160ZM106 160C106.825 160.533 107.05 160.977 106.5 160.985C105.95 160.994 105.513 163.498 105.529 166.549C105.557 172.025 104.706 175.04 103.479 173.812C103.133 173.466 101.495 173.571 99.84 174.046C97.332 174.765 97.022 174.678 97.98 173.524C98.613 172.762 99.394 169.52 99.715 166.319C100.416 159.354 102.21 157.55 106 160ZM155.827 162.75C155.8 163.713 156.109 165.963 156.514 167.75C157.196 170.76 157.062 171 154.696 171C153.292 171 151.454 171.689 150.611 172.532C149.236 173.907 149.123 173.729 149.506 170.782C150.603 162.333 151.155 161 153.551 161C155.117 161 155.86 161.571 155.827 162.75ZM163 176C164.078 176.697 163.093 176.969 159.5 176.969C156.75 176.969 153.825 176.533 153 176C151.922 175.303 152.907 175.031 156.5 175.031C159.25 175.031 162.175 175.467 163 176Z" fill="#242A77"/>
</svg>
